<svg aria-hidden="true" style="position: absolute; width: 0; height: 0; overflow: hidden;" version="1.1" xmlns="http://www.w3.org/2000/svg" xmlns:xlink="http://www.w3.org/1999/xlink">
<defs>
<symbol id="icon-cloze" viewBox="0 0 32 32">
<path d="M21.589 8.459l-5.657 5.656-5.656-5.656-1.885 1.885 5.656 5.656-5.656 5.656 1.885 1.885 5.656-5.656 5.657 5.656 1.885-1.885-5.656-5.656 5.656-5.656-1.885-1.885z"></path>
</symbol>
<symbol id="icon-facebook" viewBox="0 0 32 32">
<path d="M28.8 16.507c0-7.113-5.731-12.878-12.8-12.878s-12.8 5.765-12.8 12.878c0 6.428 4.681 11.756 10.801 12.722v-8.998h-3.251v-3.724h3.251v-2.836c0-3.228 1.91-5.011 4.835-5.011 1.4 0 2.865 0.252 2.865 0.252v3.169h-1.613c-1.591 0-2.086 0.992-2.086 2.010v2.417h3.549l-0.567 3.722h-2.982v9c6.118-0.966 10.799-6.294 10.799-12.722z"></path>
</symbol>
<symbol id="icon-instagram" viewBox="0 0 32 32">
<path d="M15.999 6.673c3.077 0 3.442 0.013 4.652 0.068 1.126 0.050 1.732 0.238 2.138 0.397 0.535 0.206 0.922 0.458 1.322 0.858 0.406 0.407 0.653 0.788 0.864 1.325 0.157 0.404 0.346 1.016 0.397 2.138 0.054 1.215 0.067 1.578 0.067 4.652s-0.013 3.443-0.068 4.653c-0.049 1.126-0.238 1.733-0.396 2.138-0.194 0.518-0.487 0.96-0.858 1.321l-0.001 0.001c-0.406 0.406-0.788 0.653-1.324 0.864-0.404 0.157-1.016 0.346-2.138 0.397-1.215 0.054-1.578 0.067-4.652 0.067s-3.443-0.013-4.653-0.067c-1.126-0.051-1.733-0.239-2.138-0.397-0.519-0.194-0.961-0.487-1.323-0.858l-0.001-0.001c-0.373-0.363-0.667-0.804-0.856-1.297l-0.008-0.025c-0.157-0.406-0.346-1.018-0.397-2.138-0.052-1.216-0.067-1.58-0.067-4.653s0.013-3.443 0.068-4.653c0.050-1.126 0.238-1.732 0.397-2.138 0.206-0.535 0.458-0.922 0.858-1.324 0.363-0.373 0.805-0.667 1.299-0.856l0.025-0.008c0.406-0.157 1.018-0.346 2.138-0.396 1.211-0.054 1.574-0.068 4.653-0.068zM15.999 4.599c-3.127 0-3.519 0.013-4.748 0.068-1.224 0.054-2.065 0.252-2.794 0.535-0.799 0.305-1.481 0.758-2.041 1.33l-0.001 0.001c-0.572 0.561-1.025 1.241-1.318 2.001l-0.013 0.039c-0.284 0.733-0.483 1.571-0.538 2.794-0.052 1.233-0.067 1.623-0.067 4.751 0 3.127 0.013 3.517 0.068 4.746 0.054 1.224 0.252 2.066 0.535 2.794 0.305 0.8 0.758 1.482 1.33 2.042l0.001 0.001c0.561 0.571 1.241 1.023 2 1.314l0.039 0.013c0.733 0.283 1.571 0.481 2.794 0.535 1.229 0.054 1.619 0.068 4.746 0.068 3.128 0 3.52-0.013 4.749-0.068 1.222-0.054 2.065-0.252 2.793-0.535 0.798-0.305 1.478-0.756 2.037-1.326l0.001-0.001c0.639-0.64 1.036-1.283 1.327-2.039 0.284-0.733 0.481-1.569 0.536-2.793 0.054-1.229 0.068-1.62 0.068-4.748s-0.014-3.519-0.068-4.748c-0.055-1.224-0.252-2.065-0.536-2.793-0.294-0.804-0.744-1.488-1.317-2.047l-0.001-0.001c-0.56-0.571-1.24-1.022-1.999-1.314l-0.039-0.013c-0.733-0.284-1.569-0.481-2.794-0.535-1.231-0.059-1.623-0.073-4.751-0.073z"></path>
<path d="M15.997 10.2c-3.203 0.084-5.768 2.701-5.768 5.917s2.565 5.833 5.76 5.917l0.008 0c3.23-0.049 5.83-2.679 5.83-5.917s-2.6-5.868-5.826-5.917l-0.005-0zM15.997 19.954c-2.119 0-3.837-1.718-3.837-3.837s1.718-3.837 3.837-3.837v0c2.12 0 3.838 1.718 3.838 3.838s-1.718 3.838-3.838 3.838v0zM23.528 9.966c0.001 0.018 0.001 0.039 0.001 0.059 0 0.763-0.619 1.382-1.382 1.382s-1.382-0.619-1.382-1.382c0-0.021 0-0.042 0.001-0.062l-0 0.003c0.033-0.737 0.639-1.323 1.381-1.323s1.348 0.585 1.381 1.32l0 0.003z"></path>
</symbol>
<symbol id="icon-linkedin" viewBox="0 0 32 32">
<path d="M25.361 4.598h-18.72c-1.189 0-2.161 0.973-2.161 2.161v18.72c0 1.188 0.973 2.159 2.161 2.159h18.72c1.188 0 2.159-0.973 2.159-2.159v-18.72c0-1.188-0.973-2.161-2.161-2.161zM13.12 23.318h-2.88v-10.080h2.88v10.080zM11.68 11.798c-0.795 0-1.44-0.645-1.44-1.44s0.645-1.44 1.44-1.44v0c0.795 0 1.44 0.645 1.44 1.44s-0.645 1.44-1.44 1.44v0zM23.2 23.318h-2.88v-5.76c0-0.795-0.645-1.44-1.44-1.44s-1.44 0.645-1.44 1.44v0 5.76h-2.88v-10.080h2.88v1.787c0.594-0.814 1.503-1.787 2.52-1.787 1.792 0 3.24 1.613 3.24 3.601v6.479z"></path>
</symbol>
<symbol id="icon-menu" viewBox="0 0 32 32">
<path d="M5.333 8h21.333v2.667h-21.333v-2.667zM5.333 14.667h21.333v2.667h-21.333v-2.667zM5.333 21.333h21.333v2.667h-21.333v-2.667z"></path>
</symbol>
<symbol id="icon-twitter" viewBox="0 0 32 32">
<path d="M22.901 5.657h3.68l-8.040 9.036 9.459 12.297h-7.405l-5.8-7.459-6.639 7.459h-3.683l8.6-9.667-9.073-11.667h7.593l5.244 6.816 6.064-6.816zM21.609 24.824h2.040l-13.164-17.115h-2.187l13.311 17.115z"></path>
</symbol>
<symbol id="icon-youtube" viewBox="0 0 32 32">
<path d="M28.279 9.978c-0.304-1.103-1.154-1.954-2.233-2.255l-0.023-0.005c-2.004-0.55-10.022-0.559-10.022-0.559s-8.019-0.009-10.025 0.517c-1.1 0.32-1.947 1.173-2.255 2.253l-0.006 0.023c-0.529 2.004-0.534 6.162-0.534 6.162s-0.005 4.178 0.52 6.162c0.294 1.097 1.158 1.964 2.257 2.259 2.025 0.55 10.022 0.559 10.022 0.559s8.019 0.009 10.024-0.516c1.102-0.306 1.953-1.155 2.256-2.234l0.005-0.023c0.53-2.003 0.534-6.159 0.534-6.159s0.026-4.179-0.521-6.182zM13.435 19.964l0.006-7.68 6.665 3.846-6.671 3.834z"></path>
</symbol>
<symbol id="icon-Check" viewBox="0 0 31 32">
<path d="M26.045 10.322l-13.568 13.568c-0.116 0.117-0.277 0.189-0.454 0.189s-0.338-0.072-0.454-0.189l-6.899-6.899c-0.117-0.116-0.189-0.277-0.189-0.454s0.072-0.338 0.189-0.454l0.896-0.896c0.116-0.117 0.277-0.189 0.454-0.189s0.338 0.072 0.454 0.189l5.542 5.542 12.224-12.224c0.117-0.114 0.278-0.184 0.454-0.184s0.337 0.070 0.455 0.184l-0-0 0.896 0.909c0.117 0.116 0.189 0.277 0.189 0.454s-0.072 0.338-0.189 0.454l-0 0z"></path>
</symbol>
<symbol id="icon-logo" viewBox="0 0 109 32">
<path d="M19.1 0.789c0.483 0.24 1.025 0.928 1.389 1.335 3.125 3.491 4.764 7.937 4.474 12.617-0.281 4.529-2.517 8.551-5.875 11.523-0.636-0.435-1.217-1.053-1.726-1.628-2.852-3.225-4.415-7.757-4.143-12.056 0.281-4.433 2.547-8.868 5.88-11.79z"></path>
<path d="M32.398 7.127c0.009 0.016 0.020 0.031 0.028 0.047 0.178 0.362 0.229 0.937 0.274 1.339 0.235 2.090 0.041 4.186-0.695 6.166-1.837 4.945-6.082 8.585-10.777 10.742-0.055-0.001-0.018 0.004-0.103-0.045 0.287-0.469 0.687-0.889 1.018-1.33 0.506-0.689 0.965-1.41 1.373-2.16 1.438-2.646 2.126-5.556 2.123-8.557-0.001-0.852-0.020-1.704-0.267-2.526 0.44-0.489 0.98-0.9 1.503-1.297 1.687-1.277 3.388-2.166 5.521-2.379z"></path>
<path d="M5.743 7.148c0.253 0.010 0.509 0.043 0.759 0.081 1.928 0.293 3.615 1.32 5.122 2.509 0.42 0.332 0.88 0.678 1.197 1.113-0.801 4.115 0.261 8.429 2.389 11.988 0.34 0.566 0.707 1.114 1.1 1.645 0.188 0.253 0.411 0.482 0.579 0.747l-0.060 0.077c-3.508-1.5-6.794-4.155-8.909-7.328-2.218-3.329-2.951-6.915-2.178-10.831z"></path>
<path d="M35.831 16.331c0.559-0.067 1.813-0.137 2.282 0.161 0.024 0.070 0.031 0.077 0.033 0.163 0.009 0.328-0.205 0.819-0.316 1.126-0.744 2.113-2.018 3.999-3.699 5.478-3.292 2.91-7.559 3.955-11.868 3.678-0.814-0.085-1.653-0.142-2.435-0.391 3.61-1.11 7.045-3.379 9.533-6.212 0.612-0.697 1.060-1.505 1.655-2.206 1.13-1.33 3.178-1.681 4.815-1.797z"></path>
<path d="M1.341 16.441c1.682-0.198 3.965 0.079 5.351 1.126 0.824 0.623 1.32 1.779 2.001 2.567 2.129 2.466 4.796 4.41 7.795 5.683 0.639 0.273 1.296 0.559 1.971 0.725l-1.35 0.225c-3.931 0.566-8.004-0.137-11.367-2.323-2.29-1.49-3.903-3.532-4.851-6.080-0.139-0.373-0.348-0.779-0.419-1.168-0.042-0.227-0.005-0.377 0.128-0.57 0.211-0.156 0.486-0.154 0.74-0.185z"></path>
<path d="M69.989 13.043c1.31-0.011 2.74-0.128 4.033 0.061 0.833 0.121 1.678 0.42 2.185 1.134 0.372 0.525 0.493 1.263 0.378 1.891-0.141 0.768-0.627 1.212-1.243 1.626 0.148 0.062 0.293 0.131 0.435 0.206 0.545 0.295 0.93 0.805 1.089 1.401 0.218 0.814 0.045 1.654-0.361 2.376-0.091 0.139-0.2 0.26-0.32 0.374-1.243 1.179-3.969 0.952-5.576 0.937-0.309-0.003-0.716 0.024-0.946-0.21-0.056-0.118-0.080-0.195-0.087-0.328-0.106-1.726-0.010-3.517-0.010-5.248-0.001-1.226-0.123-2.823 0.037-4.008 0.123-0.155 0.202-0.154 0.387-0.211zM74.377 19.113c-0.694-0.453-1.863-0.322-2.669-0.321l0.004 2.237c0.892 0.006 1.936 0.143 2.727-0.335 0.186-0.275 0.373-0.683 0.319-1.025-0.039-0.249-0.175-0.421-0.382-0.556zM74.046 15.136c-0.662-0.398-1.591-0.297-2.335-0.294v2.147c0.799 0.006 1.751 0.124 2.449-0.327 0.188-0.269 0.369-0.655 0.298-0.994-0.052-0.249-0.2-0.405-0.412-0.532z"></path>
<path d="M57.774 15.368c0.2-0.017 0.401-0.006 0.598 0.032 0.599 0.12 0.892 0.561 1.213 1.031 0.018-0.164 0.030-0.342 0.068-0.503 0.040-0.167 0.131-0.27 0.281-0.35 0.242-0.129 0.763-0.138 1.016-0.044 0.185 0.069 0.391 0.23 0.455 0.423 0.188 0.572 0.115 6.175 0.006 6.943-0.072 0.505-0.229 1.003-0.484 1.446-0.411 0.714-1.11 1.181-1.895 1.394-1.107 0.299-2.367 0.204-3.355-0.391-0.441-0.265-0.647-0.608-0.763-1.099 0.037-0.178 0.081-0.351 0.234-0.466 0.495-0.374 1.565 0.254 2.114 0.356 0.473 0.088 0.983 0.040 1.376-0.258 0.648-0.489 0.755-1.392 0.866-2.137-0.434 0.463-0.845 0.837-1.485 0.993-0.693 0.171-1.453 0.053-2.049-0.342-0.785-0.52-1.224-1.413-1.385-2.319-0.196-1.103-0.025-2.424 0.644-3.348 0.638-0.88 1.516-1.204 2.546-1.362zM57.892 17.057c-0.516 0.195-0.802 0.434-1.023 0.948-0.273 0.632-0.281 1.549-0.014 2.184 0.141 0.334 0.422 0.686 0.778 0.806 0.234 0.079 0.518 0.044 0.759 0.028 0.425-0.152 0.667-0.33 0.868-0.742 0.31-0.634 0.32-1.529 0.083-2.191-0.137-0.385-0.409-0.763-0.794-0.929-0.197-0.085-0.444-0.113-0.657-0.102z"></path>
<path d="M100.658 15.428c0.507-0.067 1.007-0.044 1.485 0.154 0.661 0.274 1.005 0.773 1.267 1.409 0.134-0.336 0.282-0.675 0.52-0.954 0.375-0.442 0.867-0.617 1.436-0.639 0.656-0.025 1.328 0.125 1.809 0.596 0.316 0.31 0.51 0.725 0.616 1.15 0.281 1.133 0.124 3.566 0.128 4.845 0 0.196 0.025 0.815-0.128 0.931-0.261 0.197-1.184 0.153-1.51 0.107-0.189-0.026-0.306-0.128-0.384-0.3-0.12-0.265-0.056-0.737-0.052-1.030 0.013-0.949 0.246-3.572-0.316-4.265-0.129-0.159-0.311-0.258-0.518-0.273-0.302-0.021-0.687 0.083-0.907 0.299-0.779 0.763-0.52 3.475-0.514 4.541 0.002 0.215 0.010 0.451-0.016 0.665-0.013 0.094-0.046 0.204-0.132 0.253-0.332 0.19-1.139 0.162-1.505 0.076-0.191-0.045-0.272-0.109-0.34-0.294-0.112-0.307-0.049-0.761-0.044-1.085 0.016-0.951 0.242-3.316-0.241-4.029-0.145-0.214-0.362-0.345-0.616-0.386-0.289-0.047-0.591-0.009-0.826 0.177-0.946 0.747-0.688 3.365-0.683 4.447 0.001 0.26 0.053 0.632-0.007 0.876-0.024 0.101-0.054 0.163-0.141 0.22-0.305 0.2-1.13 0.157-1.493 0.085-0.153-0.030-0.251-0.124-0.317-0.263-0.093-0.197-0.121-5.887-0.086-6.451 0.010-0.157 0.042-0.324 0.113-0.466 0.093-0.181 0.248-0.299 0.438-0.361 0.45-0.145 1.012 0.016 1.41 0.237 0.096 0.356 0.027 0.821 0.012 1.192 0.047-0.094 0.094-0.189 0.143-0.282 0.352-0.679 0.682-0.956 1.399-1.184z"></path>
<path d="M92.473 15.457c2.095-0.043 3.837 1.606 3.906 3.702s-1.559 3.857-3.653 3.952c-1.377 0.063-2.682-0.621-3.416-1.789s-0.783-2.64-0.128-3.854c0.654-1.214 1.912-1.982 3.291-2.010zM92.909 17.153c-0.223-0.066-0.466-0.051-0.694-0.030-0.563 0.25-0.869 0.537-1.087 1.125-0.261 0.703-0.218 1.686 0.116 2.357 0.18 0.361 0.459 0.655 0.847 0.785 0.266 0.090 0.516 0.104 0.789 0.040 0.54-0.226 0.863-0.514 1.084-1.067 0.278-0.693 0.275-1.621-0.044-2.3-0.2-0.425-0.555-0.774-1.010-0.909z"></path>
<path d="M50.044 15.468c2.109-0.095 3.897 1.536 3.995 3.645s-1.53 3.899-3.638 4c-2.113 0.101-3.908-1.53-4.007-3.644s1.536-3.905 3.65-4.001zM50.64 17.173c-0.244-0.084-0.497-0.083-0.75-0.051-0.565 0.279-0.887 0.57-1.102 1.188-0.244 0.699-0.209 1.698 0.143 2.354 0.192 0.358 0.482 0.62 0.874 0.74 0.24 0.074 0.513 0.080 0.758 0.022 0.538-0.224 0.855-0.513 1.071-1.065 0.275-0.7 0.252-1.625-0.065-2.309-0.186-0.402-0.504-0.732-0.928-0.878z"></path>
<path d="M83.895 15.51c1.358-0.22 2.73 0.307 3.592 1.38s1.081 2.526 0.574 3.805c-0.508 1.279-1.663 2.187-3.026 2.377-2.075 0.29-3.997-1.145-4.31-3.217s1.101-4.010 3.17-4.345zM84.208 17.118c-0.567 0.241-0.894 0.514-1.123 1.101-0.269 0.688-0.242 1.642 0.076 2.311 0.192 0.404 0.519 0.736 0.951 0.873 0.216 0.069 0.462 0.068 0.685 0.041 0.565-0.239 0.894-0.506 1.129-1.094 0.272-0.683 0.268-1.625-0.049-2.292-0.188-0.396-0.508-0.731-0.927-0.88-0.237-0.084-0.493-0.081-0.741-0.061z"></path>
<path d="M64.78 15.431c0.479-0.057 0.94-0.048 1.412 0.062 0.716 0.166 1.317 0.583 1.682 1.225 0.195 0.344 0.309 0.721 0.363 1.112 0.084 0.603 0.131 4.421-0.007 4.946-0.115 0.147-0.231 0.201-0.41 0.24-0.306 0.065-0.977 0.103-1.224-0.126-0.216-0.2-0.173-0.616-0.175-0.885-0.359 0.53-0.721 0.957-1.373 1.12-0.728 0.181-1.404-0.031-2.031-0.393-0.268-0.247-0.472-0.5-0.587-0.85-0.194-0.59-0.131-1.386 0.171-1.929 0.733-1.318 2.459-1.238 3.721-1.61l0.079-0.025c-0.051-0.158-0.101-0.319-0.167-0.472-0.714-1.647-2.495 0.153-3.356-0.3-0.174-0.091-0.299-0.276-0.343-0.464-0.059-0.251 0.008-0.413 0.145-0.62 0.462-0.705 1.329-0.883 2.101-1.030zM66.315 19.83c-0.525 0.144-1.509 0.303-1.822 0.779-0.102 0.156-0.111 0.359-0.044 0.53 0.047 0.121 0.138 0.226 0.219 0.326 0.542 0.037 0.882-0.003 1.296-0.38 0.251-0.229 0.482-0.597 0.47-0.952-0.003-0.088-0.027-0.178-0.047-0.263l-0.071-0.041z"></path>
<path d="M43.377 16.848c0.188-0.597 1.65-3.454 2.116-3.722 0.242-0.139 1.534-0.161 1.794-0.042 0.166 0.076 0.185 0.121 0.26 0.277-0.133 0.74-1.767 3.222-2.251 4.032l-0.849 1.412c0.003 0.849 0.153 3.44-0.143 4.055-0.104 0.079-0.177 0.123-0.307 0.154-0.399 0.093-1.192 0.065-1.544-0.156-0.272-0.358-0.13-3.333-0.129-3.991-0.434-0.694-3.236-5.168-3.162-5.595 0.093-0.133 0.152-0.166 0.302-0.225 0.473-0.014 1.434-0.139 1.825 0.098 0.507 0.308 1.901 3.076 2.089 3.705z"></path>
<path d="M78.076 13.044c0.496-0.013 1.307-0.137 1.735 0.119 0.12 0.816 0.073 1.681 0.075 2.504l0.005 3.814c0 0.996 0.11 2.194-0.019 3.172-0.025 0.195-0.145 0.258-0.287 0.37-0.516 0.017-1.311 0.145-1.736-0.191-0.1-0.382-0.163-9.187-0.067-9.535 0.046-0.165 0.154-0.184 0.294-0.254z"></path>
<path d="M19.303 26.808c0.684 0.243 1.372 0.438 2.089 0.554 1.236 0.2 2.672 0.142 3.782 0.785 0.82 0.476 1.66 1.589 1.891 2.512 0.042 0.169 0.030 0.183-0.057 0.324-0.858 0.309-1.692 0.236-2.546-0.044-2.057-0.673-4.154-2.172-5.161-4.132z"></path>
<path d="M18.917 26.813c0.043-0.004 0.085 0.019 0.127 0.031-0.002 0.020-0.002 0.040-0.006 0.059-0.106 0.438-1.799 2.223-2.19 2.532-1.351 1.067-3.357 1.914-5.101 1.706-0.047-0.010-0.111-0.023-0.154-0.042-0.094-0.043-0.153-0.078-0.178-0.18-0.066-0.273 0.089-0.589 0.213-0.826 0.399-0.763 1.025-1.659 1.808-2.072 0.966-0.508 2.391-0.506 3.465-0.697 0.688-0.122 1.35-0.309 2.017-0.512z"></path>
</symbol>
</defs>
</svg>
